<?xml version="1.0" encoding="utf-8"?>
<!-- Generator: Adobe Illustrator 24.0.2, SVG Export Plug-In . SVG Version: 6.00 Build 0)  -->
<svg version="1.1" id="Capa_1" xmlns="http://www.w3.org/2000/svg" xmlns:xlink="http://www.w3.org/1999/xlink" x="0px" y="0px"
	 viewBox="0 0 362.8 100.8" style="enable-background:new 0 0 362.8 100.8;" xml:space="preserve">
<style type="text/css">
	.st0{fill:#FEFEFE;stroke:#000000;stroke-miterlimit:10;}
	.st1{fill:#0B9342;stroke:#000000;stroke-miterlimit:10;}
	.st2{fill:#FFFFFF;stroke:#000000;stroke-miterlimit:10;}
	.st3{fill:#39A05A;stroke:#000000;stroke-miterlimit:10;}
	.st4{fill:#7A7776;stroke:#000000;stroke-miterlimit:10;}
	.st5{fill:#EDEBEA;stroke:#000000;stroke-miterlimit:10;}
	.st6{fill:#191E18;stroke:#000000;stroke-miterlimit:10;}
	.st7{fill:#0B9342;}
</style>
<g>
	<path class="st0" d="M374.4-57.6c-68.7,0-137.3,0-206,0c0-0.2-0.1-0.3-0.1-0.5c0-9.4,0-18.8,0-28.7c7.4,8.1,22.9,11.5,34.3,0.1
		c7.3-7.3,7.6-21.9,0.2-29.8c-9.4-10-23.9-10.5-34.5-0.6c0-2.5,0-4.8,0-7.1c-2.1,0-3.9,0-5.7,0c-0.1,0.2-0.2,0.3-0.3,0.5
		c0,0.6,0,1.2,0,1.8c-0.1,0.6-0.2,1.3-0.2,1.9c0,19.2,0,38.4,0,57.6c0,0.6,0.1,1.3,0.2,1.9c0,0.7,0.1,1.5,0.1,2.2
		c-0.1,0.2-0.2,0.4-0.3,0.6c-12.1,0-24.3,0-36.4,0c0-13.7,0-27.4,0-41c0.6,3.5,1.3,6.9,1.9,10.4c0.8,4.3,1.4,8.8,2.5,13
		c1.6,5.8,3.6,11.4,5.5,17.5c5.3-8.9,10.3-17.1,15.1-25.4c0.4-0.7,0.5-1.8,0.4-2.7c-0.4-5.4-1.3-10.7-1.4-16.1
		c-0.4-25.1,4.4-49.1,15.6-71.6c5.5-11.1,11.1-22,19-31.6c5.9-7.3,11.4-15.1,18.8-21.1c6.4-5.3,12.7-10.7,19.3-15.8
		c7.9-6.1,16.7-10.6,25.8-14.4c0.5-0.2,1-0.3,1.6-0.5c0.1,1,0.3,1.8,0.4,2.5c1.6,20.4-2.4,39.5-12.4,57.4
		c-5.5,9.8-11.6,19.1-19.6,27.1c-7.4,7.3-15.4,13.6-24.6,18.5c-0.5,0.3-1.1,0.4-2,0.8c3.3-23.7,16.7-42.2,28.6-61.5
		c-1.1,0.5-2.2,1-3,1.8c-5.6,6.1-11.5,12-16.5,18.6c-8.2,11-13.7,23.6-19,36.3c-3.4,8.3-5.8,16.9-8.8,26c4.6-1,8.7-1.6,12.7-2.8
		c14-4.1,26.2-11.5,36.6-21.5c6.4-6.1,12.3-13.1,17.4-20.4c10.1-14.5,15.4-31.1,18.2-48.4c1.6-10,0.9-20-2.1-29.7
		c-1.3-4.3-2.3-8.3,1-12.1c0,0,0-0.1,0-0.3c-0.9,0-1.9-0.2-2.8,0c-5.6,1.2-11.3,2.2-16.8,3.7c-13.4,3.8-25.7,10.1-37.1,18
		c-6.4,4.4-12.6,9.3-18.3,14.6c-6.5,6.2-13,12.7-18.3,19.9c-6.9,9.3-13.4,19-18.8,29.2c-10.9,20.4-16.4,42.5-18.5,65.5
		c0,0.3-0.3,0.7-0.4,1c0-50.8,0-101.7,0-152.5c110,0,220.1,0,330.1,0c0,69.2,0,138.4,0,207.6c-26.4,0-52.7,0-79,0
		c0.5-0.2,0.9-0.4,1.4-0.5c11.4-1.8,20-10.9,19.8-22.3c-0.2-13.7-0.1-27.5-0.1-41.2c0-0.8,0-1.7,0-2.6c-2,0-3.7,0-5.8,0
		c0,2.4,0,4.7,0,7.3c-10.6-9.6-24.4-9.6-33.2-1.2c-8.4,7.9-9.3,21.7-2,30.6c3.8,4.6,8.6,7.3,14.5,8.1c7.9,1,14.6-1.6,20.8-6.9
		c-0.1,5.1,0.9,10.1-2.1,14.4c-3.8,5.4-9.2,8.1-15.8,8.4C374.4-61.3,374.4-59.4,374.4-57.6z M451-83.2c-0.9-0.9-1.8-1.9-2.7-2.8
		c-0.2,0.2-0.4,0.3-0.6,0.5c0.4,0.7,1.1,1.3,1.3,2.1c0.2,0.8,0,1.7-0.1,2.7c0.8-0.2,1.4-0.3,2.1-0.4c0.2,0.3,0.4,0.6,0.8,1.2
		c0.2-1.3,0.4-2.3,0.4-2.6c1.2-0.1,2-0.2,3-0.3c-0.5-1.2-0.8-1.9-1-2.4c-1.1,0-2,0-3,0C451.1-84.6,451-83.9,451-83.2z M446-100.6
		c0.4-10-8.7-22.3-20.7-23.2c-12.5-0.8-23.9,8.5-24.6,20.6c-0.8,12.7,8.3,22.7,19.5,23.8c13.4,1.4,22.2-7.3,25-16.9
		c-0.8,0-1.5,0.1-2.2,0c-2.4-0.3-3.7,0.3-4.8,2.9c-2.7,6.4-11.3,10.1-18.6,8.6c-7.4-1.5-12.3-8.8-13.5-15.8
		C419.4-100.6,432.7-100.6,446-100.6z M348.9-100.5c0.6-11.9-8.7-22.4-20.6-23.1c-12.6-0.8-22.9,7.4-24.3,20.1
		c-1.3,11.9,7.8,23.1,19.3,24.2c11.7,1.2,23.4-6.8,24.7-17c-1.4,0-2.7-0.1-4,0.1c-0.6,0.1-1.4,0.5-1.5,1c-2.3,6.2-7,9.1-13.3,10.4
		c-9.7,2-19.4-6.3-19.7-15.7C322.5-100.5,335.6-100.5,348.9-100.5z M255.8-79.2c11.9,0.7,23.2-10.9,23.2-22.6
		c0-11.7-11.4-23.1-23.8-22.6c-12.4,0.5-22.7,10.6-22.6,22.9C232.7-88.5,244.5-78.9,255.8-79.2z M305.5-84.8
		c-0.9-0.1-1.8-0.1-2.6-0.3c-8.2-1.3-14.5-5.6-15.3-13.8c-0.7-6.8-0.1-13.8-0.1-20.8c6,0,12,0,18.1,0c0-1.9,0-3.7,0-5.7
		c-6.1,0-12.1,0-18.3,0c0-6.8,0-13.4,0-20c-2,0-3.8,0-5.6,0c0,15.1-0.4,30.1,0.1,45.1c0.5,13.6,12.5,21.5,23.8,20.9
		C305.5-81.2,305.5-82.9,305.5-84.8z M216.4-79.3c0-7.1,0.4-14.1-0.1-21c-0.6-8.4,5.9-14.4,13.1-16.2c1.7-0.4,3.4-0.6,4.9-0.8
		c0-1.9,0-3.6,0-5.4c-6.7,0.5-12.7,2.4-18.1,7.1c0-2.7,0-4.8,0-7c-1.8,0-3.5,0-5.2,0c0,14.5,0,28.9,0,43.3
		C212.8-79.3,214.5-79.3,216.4-79.3z M331-138c3.3,1.1,2.1,6.7,6.9,6c0-3,0-5.8,0-8.6c0-1.8-0.8-2.1-2.4-1.3c0,1.8,0,3.6,0,5.6
		c-2-2.4-2-6.7-6.6-5.9c0,3.5,0,6.8,0,10.3c0.7,0,1.4-0.1,2.1-0.1c0-1.2,0-2.1,0-3.1C331-136.1,331-137.1,331-138z M301.1-141.2
		c-0.2-0.4-0.3-0.8-0.5-1.3c-1.8,0.2-3.7,0.3-5.5,0.7c-2.6,0.7-3.8,3.2-3.2,6.1c0.6,2.9,3.1,4.1,7.3,3.8c3.3-0.2,1.9-2.6,2.2-4.3
		c0.1-0.5-0.1-1.1-0.2-1.7c-0.8,0-1.4-0.1-2,0c-0.6,0.1-1.1,0.4-1.7,0.5c0.4,0.5,0.8,0.9,1.1,1.5c0.3,0.5,0.4,1.1,0.6,1.8
		c-2.9,0.3-4.7-1-4.8-3c0-1.9,1.8-3.3,4.1-3.3c0.3,0,0.7,0.2,0.9,0.1C300-140.5,300.6-140.9,301.1-141.2z M367.6-142.4
		c0,2.4,0.2,4.5-0.1,6.5c-0.1,0.8-1.2,1.4-1.8,2.1c-0.5-0.7-1.5-1.3-1.6-2c-0.3-1.7,0-3.5-0.2-5.3c0-0.5-0.7-1-1.2-1.2
		c-0.2-0.1-1.1,0.7-1.1,1.1c0,2-0.1,4,0.2,6c0.3,2.4,1.8,3.5,4.1,3.5c2.2-0.1,4.4-1.7,4.6-3.7c0.2-2.2,0-4.4,0-6.8
		C369.6-142.3,368.8-142.3,367.6-142.4z M360.2-137.3c0-3.2-2.1-5.3-5-5.2c-2.8,0.1-5.3,2.7-5.3,5.6c0,2.8,2.5,5.2,5.4,5.1
		C358.4-131.8,360.2-133.9,360.2-137.3z M340-142.2c0,3.5,0,6.8,0,10.3c0.8-0.1,1.5-0.1,2.2-0.2c0.1-1.4,0.1-2.7,0.2-4
		c1.3,0,2.4,0,3.7,0c0,1.4,0,2.7,0,4.1c0.9,0,1.5-0.1,2.3-0.1c0-3.4,0-6.7,0-10.1c-0.8,0-1.4,0-2.2,0c-0.1,1.3-0.2,2.4-0.3,3.7
		c-1.2,0-2.3,0-3.1,0C341.4-139.6,343.8-142.8,340-142.2z M397.5-134.3c-0.9-2.6-1.5-4.7-2.3-6.7c-0.2-0.6-0.9-0.9-1.3-1.4
		c-0.4,0.5-1,1-1,1.5c-0.3,2.6-0.5,5.3-0.6,7.9c0,0.4,0.4,0.8,0.6,1.1c0.2-0.1,0.4-0.1,0.6-0.1c0.2-2.3,0.4-4.6,0.6-7.3
		c1.1,2.8,2,5.1,2.9,7.4c0.2,0,0.5,0,0.7,0c0.9-2.4,1.9-4.9,2.8-7.3c0.2,0,0.4,0.1,0.6,0.1c0,1.3-0.2,2.7,0,3.9
		c0.2,1.1-0.9,2.8,1.5,3.2c-0.2-3.2-0.3-6.1-0.6-9.1c0-0.5-0.5-1-0.8-1.5c-0.5,0.4-1.2,0.7-1.5,1.2
		C399.1-139.1,398.4-136.9,397.5-134.3z M310.7-132.2c-0.1-0.6-0.3-1.2-0.4-1.8c-0.5-1.6-1.4-2.9,0-4.7c1-1.3-0.1-2.9-1.7-3.3
		c-1.7-0.3-3.6-0.2-5.3-0.3c0,3.7,0,7,0,10.4c0.8-0.1,1.5-0.1,2.2-0.1c0.1-1.4,0.1-2.5,0.2-3.7c0.3-0.1,0.5-0.3,0.8-0.4
		c0.5,0.8,1.3,1.6,1.6,2.5C308.3-132,309.1-131.5,310.7-132.2z M312.2-132c2.5,0,4.6,0,7,0c0-0.6,0-1.4-0.1-1.4
		c-1.3-0.3-2.6-0.4-4-0.6c0-0.7,0-1.4,0-2c3.6-0.4,3.6-0.4,3.3-2.2c-1.1,0-2.1,0-3.4,0c0-0.8,0.1-1.3,0.1-2c1,0,1.8,0.1,2.5-0.1
		c0.5-0.1,0.8-0.6,1.3-1c-0.4-0.3-0.8-0.9-1.3-0.9c-1.8-0.1-3.6-0.1-5.5-0.1C312.2-138.7,312.2-135.5,312.2-132z M383.3-138.3
		c-0.1-0.2-0.3-0.4-0.4-0.6c0.5-0.4,1-1,1.6-1.3c0.4-0.2,1,0.1,1.4-0.1c0.5-0.2,0.9-0.6,1.3-1c-0.4-0.4-0.8-1-1.3-1
		c-1.7-0.1-3.4-0.1-5.1-0.1c0,3.7,0,7,0,10.4c2.2,0,4.2,0,6.5,0c-0.1-3.4-3.1-0.8-4.2-2.5c0-0.3,0.1-1,0.1-1.2
		c1.1-1.4,3.9,0.8,3.6-2.5C385.5-138.2,384.4-138.3,383.3-138.3z M323.3-134.3c0-0.5,0-1.1,0-1.6c1.1-1,3.7,0.9,3.6-2.3
		c-1.3,0-2.4,0-3.4,0c-1-2.1,0.3-2.1,1.6-2.1c1.3,0.1,2.5,0,1.8-1.9c-2,0-4,0-5.9,0c0,3.5,0,6.8,0,10.1c2.2,0,4.3,0,6.5,0
		C327.2-135.3,324.6-133.1,323.3-134.3z M378.9-141.1c-0.1-0.3-0.2-0.7-0.4-1c-1-0.1-2.2-0.6-3-0.3c-1.2,0.5-2.6,1.4-3.1,2.5
		c-0.7,1.5,0.5,2.6,1.9,3.4c0.9,0.5,1.5,1.3,2.3,2c-1.1,0.1-2.2,0.3-3.3,0.4c-0.2,0-0.5,0-0.6,0c-0.9,1.4-0.4,2.1,1.1,2.2
		c0.6,0.1,1.3,0.1,1.9,0.1c1.7-0.1,3-0.7,3.4-2.5c0.4-1.8-0.6-2.9-2.1-3.6c-0.8-0.4-1.5-0.9-2.3-1.4c0-0.2,0.1-0.5,0.1-0.7
		c0.8-0.1,1.6-0.1,2.3-0.4C377.7-140.5,378.3-140.8,378.9-141.1z M442.9-137.2c0-3.1-1.9-5.3-4.6-5.3c-2.8,0-4.8,2.3-4.9,5.4
		c0,3.2,2,5.4,4.8,5.4C441-131.8,442.9-134,442.9-137.2z M404.8-142c0,3.4,0,6.7,0,9.8c2.2,0,4.2,0,6.3,0c0-0.2,0-0.5,0-0.7
		c-1.6-0.1-3.1-0.3-4.8-0.5c0-1.1,0-2.1,0-3.2c1.5-0.1,2.9-0.2,4.3-0.4c0-0.3,0-0.5,0-0.8c-1.4-0.2-2.8-0.3-4.4-0.5
		c0-0.9,0-1.8,0-2.7c1.6-0.1,3-0.2,4.5-0.3c0-0.3,0-0.5,0-0.8C408.9-142,407-142,404.8-142z M415.9-135.7c2.7,3.5,2.7,3.5,3.8,3.6
		c-0.9-1.7-2.5-3.4-2.5-5.1c0-1.6,1.5-3.3,2.4-4.9c-0.2-0.2-0.5-0.4-0.7-0.5c-1,1.3-2,2.6-3,3.9c-1.4-0.9-1.1-3.6-3.8-3.7
		c1,1.9,2.5,3.6,2.5,5.2c0,1.7-1.5,3.4-2.6,5.3C414.7-132,414.4-134.6,415.9-135.7z M432.9-132.9c-5.5-0.7-6.1-1.1-6.4-3.6
		c-0.4-4.7,2.8-4.9,6.5-4.8c-2.5-2-5.4-1.4-7.7,1c-1.2,1.3-1.2,5.1-0.1,6.4C427.3-131.6,430.5-131.1,432.9-132.9z M422.6-142.2
		c-0.4,0-0.8-0.1-1.2-0.1c-0.1,2.9-0.1,5.9,0,8.9c0,0.6,0.4,1.1,0.6,1.7c0.2-0.1,0.4-0.1,0.6-0.2
		C422.6-135.4,422.6-138.8,422.6-142.2z M446.8-85.3c-0.3,0-0.6-0.1-0.9-0.1c0,1.6-0.1,3.3,0.1,4.9c0,0.3,1.1,0.5,2,0.8
		C447.5-81.9,447.2-83.6,446.8-85.3z"/>
	<path class="st1" d="M289.4,76.5c0.1-0.1,0.2-0.3,0.2-0.4c1.1-9.2,4-18.1,9.7-26.3c2.8-4.1,6.2-8,9.8-11.7c2.8-2.9,6.2-5.5,9.6-8
		c3-2.1,6.2-4.1,9.6-5.9c6-3.2,12.4-5.7,19.4-7.2c2.9-0.6,5.8-1,8.8-1.5c0.5-0.1,1,0,1.5,0c0,0.1,0,0.1,0,0.1
		c-1.7,1.5-1.2,3.1-0.5,4.8c1.5,3.9,1.9,7.9,1.1,11.9c-1.5,7-4.2,13.6-9.5,19.4c-2.7,2.9-5.7,5.7-9.1,8.2c-5.5,4-11.8,7-19.1,8.6
		c-2.1,0.5-4.3,0.7-6.6,1.1c1.6-3.6,2.8-7.1,4.6-10.5c2.7-5.1,5.6-10.1,9.9-14.5c2.6-2.7,5.7-5,8.6-7.5c0.4-0.3,1-0.5,1.5-0.7
		c-6.3,7.7-13.2,15.1-15,24.7c0.5-0.2,0.8-0.2,1-0.3c4.8-1.9,9-4.5,12.9-7.4c4.2-3.2,7.4-6.9,10.3-10.9c5.2-7.2,7.3-14.8,6.5-23
		c0-0.3-0.1-0.6-0.2-1c-0.3,0.1-0.6,0.1-0.9,0.2c-4.8,1.6-9.4,3.4-13.5,5.8c-3.4,2-6.7,4.2-10.1,6.3c-3.8,2.4-6.7,5.5-9.8,8.5
		c-4.1,3.9-7,8.3-9.9,12.7c-5.9,9.1-8.4,18.7-8.2,28.8c0,2.2,0.5,4.3,0.7,6.4c0,0.4,0,0.8-0.2,1.1c-2.5,3.3-5.1,6.6-7.9,10.2
		c-1-2.5-2.1-4.7-2.9-7c-0.6-1.7-0.9-3.5-1.3-5.2c-0.3-1.4-0.7-2.8-1-4.2C289.4,80.2,289.4,78.4,289.4,76.5z"/>
	<path class="st2" d="M214.2,100.4c0-1.8,0-3.7,0-5.8c6.6-0.3,12-3,15.8-8.4c3.1-4.3,2.1-9.3,2.1-14.4c-6.2,5.3-13,7.9-20.8,6.9
		c-5.9-0.8-10.7-3.5-14.4-8.1c-7.3-9-6.4-22.7,1.9-30.6c8.8-8.4,22.6-8.4,33.2,1.2c0-2.6,0-4.9,0-7.3c2,0,3.8,0,5.8,0
		c0,0.9,0,1.7,0,2.6c0,13.8-0.2,27.5,0.1,41.2C238,89,229.5,98.1,218,100c-0.5,0.1-0.9,0.3-1.4,0.5
		C215.8,100.4,215,100.4,214.2,100.4z M214.8,73.5c9.4,0.1,17.4-7.7,17.5-17c0.2-9.8-8.8-17.2-17.3-17.2c-9.8,0-17.5,7.3-17.5,16.9
		C197.4,66,204.8,73.4,214.8,73.5z"/>
	<path class="st2" d="M8.1,99.9c0,0.2,0.1,0.3,0.1,0.5c-2.1,0-4.2,0-6.2,0c0.1-0.2,0.2-0.4,0.3-0.6C4.2,99.8,6.2,99.9,8.1,99.9z"/>
	<path class="st2" d="M8.1,99.9c-2,0-3.9-0.1-5.9-0.1c0-0.7,0-1.5-0.1-2.2c0.1-0.7,0.3-1.4,0.3-2.1c0-19.1,0-38.2,0-57.2
		c0-0.7-0.2-1.4-0.3-2.1c0-0.6,0-1.2,0-1.8c0.1-0.2,0.2-0.3,0.3-0.5c1.8,0,3.6,0,5.7,0c0,2.3,0,4.6,0,7.1
		c10.6-9.9,25.2-9.4,34.5,0.6c7.4,7.9,7.1,22.5-0.2,29.8c-11.5,11.4-27,8-34.3-0.1C8.1,81.1,8.1,90.5,8.1,99.9z M24.9,73
		c10.5,0.5,17.4-8.7,17.7-16.5c0.3-7.8-6.8-17.2-17-17.3c-9.4-0.1-17.2,7.1-17.4,16.2C8,65.4,15,72.8,24.9,73z"/>
	<path class="st2" d="M285.8,57.4c-13.3,0-26.6,0-39.9,0c1.2,7,6.1,14.3,13.5,15.8c7.3,1.4,15.9-2.2,18.6-8.6
		c1.1-2.5,2.4-3.2,4.8-2.9c0.7,0.1,1.4,0,2.2,0c-2.8,9.6-11.5,18.3-25,16.9c-11.2-1.2-20.3-11.1-19.5-23.8
		c0.8-12.1,12.1-21.4,24.6-20.6C277.1,35.1,286.2,47.5,285.8,57.4z M279.4,52.1c-1.4-7.3-8.8-12.7-16.8-12.5
		c-7.4,0.2-15.4,6.4-16.1,12.5C257.4,52.1,268.3,52.1,279.4,52.1z"/>
	<path class="st2" d="M188.7,57.5c-13.3,0-26.3,0-39.4,0c0.3,9.3,10,17.7,19.7,15.7c6.2-1.3,10.9-4.2,13.3-10.4c0.2-0.5,1-1,1.6-1
		c1.3-0.2,2.7,0,4,0c-1.3,10.2-13,18.2-24.7,17c-11.5-1.2-20.6-12.3-19.3-24.2c1.4-12.7,11.7-20.9,24.3-20.1
		C180,35.1,189.3,45.6,188.7,57.5z M182.8,52.1c-1.7-7.8-8.6-12.3-16.7-12.4c-7.1-0.1-15.9,6.1-16.4,12.4
		C160.7,52.1,171.6,52.1,182.8,52.1z"/>
	<path class="st2" d="M95.7,78.8c-11.3,0.3-23.1-9.3-23.2-22.3c-0.1-12.3,10.2-22.4,22.7-22.9c12.3-0.5,23.7,10.9,23.8,22.6
		C118.9,67.8,107.6,79.4,95.7,78.8z M96,39.1c-10.5-0.4-17.6,8.4-17.8,16.8c-0.3,8.3,6.9,17.3,17,17.4c10,0.1,17.8-7.4,17.8-17.1
		C112.9,46.9,105.4,39.2,96,39.1z"/>
	<path class="st2" d="M145.3,73.2c0,1.9,0,3.6,0,5.4c-11.4,0.6-23.4-7.3-23.8-20.9c-0.5-14.9-0.1-29.9-0.1-45c1.8,0,3.6,0,5.6,0
		c0,6.5,0,13.2,0,20c6.2,0,12.1,0,18.3,0c0,2,0,3.7,0,5.7c-6.1,0-12,0-18.1,0c0,7-0.6,14,0.2,20.8c0.8,8.2,7.1,12.5,15.3,13.8
		C143.5,73.1,144.4,73.1,145.3,73.2z"/>
	<path class="st2" d="M56.2,78.7c-1.9,0-3.5,0-5.3,0c0-14.4,0-28.8,0-43.3c1.7,0,3.4,0,5.2,0c0,2.2,0,4.3,0,7c5.4-4.7,11.3-6.6,18-7
		c0,1.8,0,3.5,0,5.4c-1.6,0.3-3.3,0.4-4.9,0.8c-7.1,1.8-13.6,7.8-13.1,16.2C56.6,64.6,56.2,71.6,56.2,78.7z"/>
	<path class="st1" d="M131.8,22.4"/>
	<path class="st1" d="M139,26.1"/>
	<path class="st1" d="M134.2,21"/>
	<path class="st3" d="M278,26.3 M282.7,20.8"/>
	<path class="st2" d="M2.2,36.2c0.1,0.7,0.3,1.4,0.3,2.1c0,19.1,0,38.2,0,57.2c0,0.7-0.2,1.4-0.3,2.1C2.1,97,2,96.3,2,95.7
		C2,76.5,2,57.3,2,38C2,37.4,2.1,36.8,2.2,36.2z"/>
	<path class="st4" d="M290.8,74.8c0-0.7,0.1-1.4,0.2-2.3c1,0,1.9,0,3,0c0.2,0.6,0.5,1.2,1,2.4c-1,0.1-1.8,0.2-3,0.3
		c0,0.3-0.2,1.3-0.4,2.6c-0.4-0.5-0.6-0.8-0.8-1.2C290.8,76.1,290.8,75.5,290.8,74.8z"/>
	<path class="st5" d="M289.4,73.3c0,0.6,0,1.2-0.2,1.8c0.1,0.6,0.2,1.3,0.1,1.9c0.5-0.1,1-0.2,1.5-0.3c0-0.7,0-1.3,0-2L289.4,73.3z"
		/>
	<path class="st2" d="M2.5,33.9c-0.1,0.2-0.2,0.3-0.3,0.5C2.3,34.2,2.4,34,2.5,33.9z"/>
	<path class="st6" d="M214.8,73.5c-10-0.1-17.4-7.5-17.3-17.3c0.1-9.5,7.7-16.9,17.5-16.9c8.6,0,17.5,7.4,17.3,17.2
		C232.2,65.8,224.2,73.6,214.8,73.5z"/>
	<path class="st6" d="M24.9,73C15,72.8,8,65.4,8.2,55.5c0.2-9.1,8-16.3,17.4-16.2c10.2,0.1,17.3,9.5,17,17.3
		C42.3,64.3,35.3,73.5,24.9,73z"/>
	<path class="st6" d="M279.4,52.1c-11.1,0-22,0-32.9,0c0.8-6.1,8.8-12.3,16.1-12.5C270.6,39.4,278,44.8,279.4,52.1z"/>
	<path class="st6" d="M182.8,52.1c-11.2,0-22.1,0-33.1,0c0.5-6.3,9.3-12.6,16.4-12.4C174.2,39.8,181.1,44.3,182.8,52.1z"/>
	<path class="st6" d="M96,39.1c9.4,0.1,17,7.8,17,17.2c0,9.7-7.8,17.2-17.8,17.1c-10.1-0.1-17.2-9.1-17-17.4
		C78.4,47.5,85.5,38.7,96,39.1z"/>
</g>
<g>
	<g>
		<path class="st7" d="M292.8,77.4c3.2,0,3.2-5,0-5S289.6,77.4,292.8,77.4L292.8,77.4z"/>
	</g>
</g>
<g>
	<g>
		<path class="st7" d="M292.2,75.1C292.2,75.1,292.2,75.1,292.2,75.1c0.2,0,0.4,0,0.6-0.1c0,0,0,0,0,0c0.2,0,0.4,0.1,0.7,0.1
			c0,0,0,0,0,0c0.2,0.1,0.4,0.2,0.6,0.3c0,0,0,0-0.1,0c0.2,0.1,0.3,0.3,0.5,0.4c0,0,0,0-0.1-0.1c0.1,0.2,0.3,0.3,0.4,0.5
			c-0.1-0.2-0.2-0.4-0.3-0.6c-0.1-0.2-0.2-0.4-0.3-0.6c0.1,0.2,0.2,0.4,0.3,0.6c0-0.1,0-0.1-0.1-0.2c0,0.2,0.1,0.4,0.1,0.7
			c0,0,0-0.1,0-0.1c0,0.2-0.1,0.4-0.1,0.7c0-0.1,0-0.1,0.1-0.2c-0.1,0.2-0.2,0.4-0.3,0.6c0.2-0.4,0.4-0.8,0.5-1.3
			c0.1-0.4,0.2-0.9,0.2-1.4c0-0.2-0.1-0.4-0.1-0.7c-0.1-0.3-0.2-0.6-0.5-0.8c-0.1-0.2-0.3-0.3-0.5-0.4c-0.2-0.2-0.5-0.4-0.9-0.4
			c-0.2-0.1-0.5-0.1-0.7-0.1c0,0-0.1,0-0.1,0c-0.5,0-0.7,0.1-1.1,0.3c-0.2,0.1-0.4,0.2-0.5,0.3c-0.2,0.1-0.3,0.3-0.5,0.4
			c-0.1,0.2-0.3,0.3-0.3,0.6c-0.1,0.1-0.1,0.2-0.1,0.3c0,0.1,0,0.3-0.1,0.4c0,0.1,0,0.3,0,0.4c0,0,0,0.1,0,0.1c0,0.2,0,0.5,0.1,0.7
			c0,0.1,0,0.1,0,0.2c0,0.1,0.1,0.3,0.1,0.4c0-0.2-0.1-0.4-0.1-0.7c0,0.1,0,0.1,0,0.2c0-0.2,0.1-0.4,0.1-0.7c0,0.1,0,0.2-0.1,0.3
			c0.1-0.2,0.2-0.4,0.3-0.6c-0.1,0.2-0.2,0.4-0.3,0.7c0.1-0.2,0.3-0.3,0.4-0.5c0,0.1-0.1,0.1-0.2,0.2c-0.2,0.2-0.4,0.5-0.5,0.8
			c-0.2,0.3-0.2,0.6-0.2,1c0,0.3,0.1,0.7,0.2,1c0.1,0.3,0.3,0.6,0.5,0.8c0.5,0.4,1.1,0.8,1.8,0.7c0.2,0,0.4-0.1,0.7-0.1
			c0.4-0.1,0.8-0.3,1.1-0.6c0.6-0.5,0.9-1.3,1.2-2.1c0.2-0.6,0.2-1.2,0-1.8c0-0.2-0.1-0.4-0.2-0.6c0,0.2,0.1,0.4,0.1,0.7
			c0-0.1,0-0.1,0-0.2c0,0.2-0.1,0.4-0.1,0.7c0,0,0-0.1,0-0.1c-0.6,0.6-1.2,1.2-1.8,1.8c0,0,0.1,0,0.1,0c-0.2,0-0.4,0.1-0.7,0.1
			c0,0,0.1,0,0.1,0c-0.2,0-0.4-0.1-0.7-0.1c0,0,0,0,0,0c-0.6-0.8-1.2-1.6-1.8-2.4c0,0.1,0,0.2,0,0.3c0-0.2,0.1-0.4,0.1-0.7
			c0,0.3-0.1,0.5-0.2,0.8c0.1-0.2,0.2-0.4,0.3-0.6c0,0.1-0.1,0.2-0.2,0.3c-0.3,0.5-0.4,0.9-0.4,1.5c0,0.7,0.3,1.3,0.6,1.9
			c0.1,0.3,0.2,0.5,0.4,0.8c0.3,0.4,0.6,0.8,1,1.1c0.6,0.3,1.4,0.5,2.1,0.3c0.3-0.1,0.6-0.2,0.9-0.4c0.3-0.2,0.5-0.4,0.6-0.7
			c0.2-0.3,0.3-0.6,0.3-0.9c0.1-0.3,0.1-0.7,0-1c-0.2-0.6-0.6-1.2-1.1-1.5c-0.2-0.1-0.4-0.2-0.6-0.3C293.1,75,292.7,75,292.2,75.1
			L292.2,75.1z"/>
	</g>
</g>
</svg>
