<?xml version="1.0" encoding="utf-8"?>
<!-- Generator: Adobe Illustrator 24.0.2, SVG Export Plug-In . SVG Version: 6.00 Build 0)  -->
<svg version="1.1" id="Capa_1" xmlns="http://www.w3.org/2000/svg" xmlns:xlink="http://www.w3.org/1999/xlink" x="0px" y="0px"
	 viewBox="0 0 362.76 100.8" style="enable-background:new 0 0 362.76 100.8;" xml:space="preserve">
<style type="text/css">
	.st0{fill:#FEFEFE;}
	.st1{fill:#0B9342;}
	.st2{fill:#272120;}
	.st3{fill:#82807E;}
	.st4{fill:#25201E;}
	.st5{fill:#262120;}
	.st6{fill:#282321;}
	.st7{fill:#26201F;}
	.st8{fill:#241F1E;}
	.st9{fill:#279A4E;}
	.st10{fill:#2C9B50;}
	.st11{fill:#20984B;}
	.st12{fill:#27994D;}
	.st13{fill:#369F58;}
	.st14{fill:#26994D;}
	.st15{fill:#199749;}
	.st16{fill:#1B9849;}
	.st17{fill:#39A05A;}
	.st18{fill:#3FA25D;}
	.st19{fill:#289E52;}
	.st20{fill:#7A7776;}
	.st21{fill:#EDEBEA;}
	.st22{fill:#FDFDFD;}
	.st23{fill:#FDFCFC;}
	.st24{fill:#FEFDFD;}
	.st25{fill:#F4F7F4;}
	.st26{fill:#ECF4ED;}
	.st27{fill:#F7FAF8;}
</style>
<g>
	<path class="st0" d="M374.39-57.59c-68.67,0-137.33,0-206,0c-0.02-0.18-0.05-0.35-0.07-0.53c0-9.4,0-18.81,0-28.72
		c7.38,8.07,22.86,11.47,34.33,0.1c7.32-7.26,7.59-21.91,0.23-29.78c-9.37-10.01-23.9-10.48-34.51-0.58c0-2.48,0-4.76,0-7.06
		c-2.05,0-3.87,0-5.69,0c-0.11,0.17-0.21,0.34-0.32,0.51c0,0.6,0,1.19,0,1.79c-0.07,0.63-0.19,1.27-0.19,1.9
		c-0.01,19.21-0.01,38.43,0,57.64c0,0.63,0.12,1.27,0.19,1.9c0.02,0.74,0.05,1.48,0.07,2.22c-0.09,0.2-0.17,0.41-0.26,0.61
		c-12.14,0-24.27,0-36.41,0c0-13.68,0-27.36,0-41.03c0.63,3.46,1.26,6.92,1.9,10.37c0.81,4.34,1.36,8.75,2.5,13
		c1.55,5.75,3.55,11.37,5.52,17.54c5.33-8.92,10.27-17.14,15.13-25.4c0.43-0.74,0.48-1.83,0.4-2.73c-0.44-5.37-1.3-10.72-1.4-16.09
		c-0.45-25.12,4.43-49.08,15.65-71.65c5.5-11.05,11.14-21.96,18.96-31.62c5.94-7.34,11.45-15.05,18.77-21.12
		c6.38-5.3,12.69-10.71,19.25-15.77c7.89-6.08,16.72-10.56,25.84-14.45c0.48-0.2,1-0.3,1.65-0.49c0.14,0.98,0.29,1.76,0.35,2.54
		c1.56,20.38-2.41,39.51-12.4,57.39c-5.5,9.84-11.56,19.12-19.64,27.09c-7.41,7.32-15.44,13.65-24.62,18.49
		c-0.51,0.27-1.06,0.45-1.98,0.84c3.32-23.74,16.66-42.23,28.63-61.47c-1.14,0.46-2.21,0.99-2.96,1.81
		c-5.57,6.15-11.53,12-16.49,18.62c-8.24,11-13.73,23.64-18.97,36.27c-3.42,8.25-5.8,16.95-8.83,26.03
		c4.55-0.98,8.71-1.61,12.73-2.78c13.97-4.06,26.17-11.51,36.59-21.52c6.41-6.15,12.25-13.09,17.36-20.38
		c10.14-14.47,15.38-31.07,18.16-48.42c1.61-10,0.85-20.02-2.06-29.73c-1.29-4.3-2.26-8.3,1.04-12.07c0.03-0.04-0.03-0.15-0.05-0.28
		c-0.93,0-1.9-0.16-2.8,0.03c-5.61,1.19-11.28,2.17-16.79,3.74c-13.36,3.82-25.68,10.06-37.07,17.97
		c-6.41,4.45-12.64,9.29-18.31,14.65c-6.54,6.18-12.99,12.66-18.34,19.87c-6.9,9.27-13.35,19.02-18.78,29.22
		c-10.87,20.38-16.4,42.49-18.48,65.5c-0.03,0.34-0.29,0.66-0.44,0.99c0-50.85,0-101.7,0-152.55c110.03,0,220.05,0,330.08,0
		c0,69.19,0,138.39,0,207.58c-26.35,0-52.7,0-79.05,0c0.47-0.16,0.94-0.4,1.43-0.47c11.41-1.83,19.97-10.95,19.78-22.25
		c-0.24-13.74-0.06-27.49-0.06-41.24c0-0.85,0-1.71,0-2.56c-2,0-3.72,0-5.76,0c0,2.42,0,4.72,0,7.29
		c-10.58-9.59-24.39-9.57-33.19-1.21c-8.37,7.95-9.26,21.65-1.95,30.62c3.75,4.6,8.57,7.33,14.45,8.09
		c7.87,1.02,14.62-1.58,20.83-6.9c-0.07,5.13,0.91,10.11-2.14,14.44c-3.81,5.42-9.17,8.12-15.78,8.38
		C374.39-61.28,374.39-59.43,374.39-57.59z M450.95-83.2c-0.89-0.94-1.78-1.89-2.67-2.83c-0.19,0.16-0.37,0.32-0.56,0.47
		c0.44,0.68,1.07,1.3,1.26,2.05c0.2,0.78-0.04,1.67-0.09,2.7c0.76-0.15,1.41-0.28,2.07-0.41c0.22,0.3,0.44,0.61,0.83,1.15
		c0.22-1.35,0.38-2.32,0.43-2.62c1.21-0.14,2.01-0.23,2.97-0.34c-0.52-1.18-0.81-1.86-1.05-2.41c-1.11,0-2.02,0-3,0
		C451.06-84.61,451-83.9,450.95-83.2z M445.96-100.59c0.42-9.96-8.66-22.35-20.67-23.16c-12.52-0.84-23.87,8.48-24.64,20.57
		c-0.81,12.73,8.26,22.65,19.49,23.79c13.43,1.37,22.22-7.26,24.98-16.91c-0.75,0-1.47,0.08-2.17-0.02
		c-2.38-0.34-3.69,0.32-4.77,2.86c-2.74,6.45-11.28,10.08-18.61,8.63c-7.43-1.47-12.33-8.8-13.52-15.76
		C419.38-100.59,432.68-100.59,445.96-100.59z M348.86-100.54c0.6-11.92-8.72-22.36-20.57-23.13c-12.56-0.82-22.87,7.45-24.25,20.1
		c-1.3,11.88,7.8,23.06,19.29,24.24c11.71,1.2,23.42-6.76,24.7-16.97c-1.36,0-2.71-0.1-4.04,0.05c-0.56,0.06-1.37,0.54-1.55,1.03
		c-2.33,6.2-7.03,9.08-13.25,10.38c-9.67,2.02-19.39-6.35-19.71-15.69C322.54-100.54,335.62-100.54,348.86-100.54z M255.84-79.24
		c11.94,0.65,23.23-10.93,23.22-22.56c-0.01-11.7-11.42-23.1-23.75-22.61c-12.44,0.5-22.71,10.62-22.64,22.89
		C232.74-88.52,244.52-78.92,255.84-79.24z M305.48-84.81c-0.94-0.1-1.8-0.14-2.65-0.28c-8.17-1.34-14.46-5.63-15.31-13.79
		c-0.71-6.82-0.15-13.77-0.15-20.82c6.03,0,12,0,18.06,0c0-1.95,0-3.74,0-5.69c-6.12,0-12.08,0-18.27,0c0-6.8,0-13.44,0-19.99
		c-2.02,0-3.8,0-5.63,0c0,15.15-0.4,30.12,0.12,45.05c0.47,13.61,12.45,21.51,23.83,20.89C305.48-81.17,305.48-82.9,305.48-84.81z
		 M216.35-79.32c0-7.06,0.37-14.05-0.1-20.99c-0.57-8.44,5.94-14.37,13.07-16.2c1.66-0.42,3.39-0.56,4.95-0.81c0-1.91,0-3.62,0-5.38
		c-6.72,0.46-12.69,2.36-18.05,7.05c0-2.66,0-4.79,0-6.98c-1.84,0-3.49,0-5.2,0c0,14.48,0,28.88,0,43.31
		C212.84-79.32,214.49-79.32,216.35-79.32z M331.05-138.03c3.26,1.06,2.07,6.67,6.86,6.02c0-3.01-0.05-5.82,0.02-8.62
		c0.04-1.84-0.75-2.05-2.42-1.3c0,1.79,0,3.61,0,5.62c-2.05-2.37-1.98-6.72-6.58-5.89c0,3.5,0,6.77,0,10.25
		c0.74-0.04,1.37-0.08,2.12-0.12c0-1.17,0-2.13,0-3.08C331.05-136.1,331.05-137.06,331.05-138.03z M301.14-141.23
		c-0.17-0.42-0.34-0.83-0.51-1.25c-1.84,0.22-3.73,0.25-5.5,0.72c-2.6,0.68-3.82,3.24-3.19,6.12c0.64,2.94,3.06,4.07,7.27,3.75
		c3.3-0.24,1.92-2.64,2.16-4.28c0.08-0.5-0.12-1.05-0.2-1.7c-0.78,0-1.42-0.07-2.03,0.02c-0.57,0.09-1.11,0.36-1.67,0.54
		c0.37,0.49,0.81,0.94,1.09,1.47c0.27,0.53,0.38,1.15,0.58,1.8c-2.94,0.25-4.74-0.97-4.8-3c-0.05-1.86,1.77-3.33,4.12-3.3
		c0.32,0,0.69,0.2,0.94,0.09C300.01-140.5,300.56-140.89,301.14-141.23z M367.65-142.38c0,2.39,0.16,4.48-0.09,6.52
		c-0.09,0.75-1.16,1.38-1.78,2.06c-0.55-0.67-1.46-1.27-1.57-2.01c-0.26-1.73-0.05-3.52-0.23-5.27c-0.05-0.46-0.74-1.03-1.24-1.19
		c-0.24-0.08-1.06,0.69-1.07,1.08c-0.05,2-0.07,4.01,0.17,5.99c0.3,2.41,1.75,3.52,4.06,3.47c2.24-0.05,4.43-1.69,4.58-3.69
		c0.16-2.21,0.04-4.45,0.04-6.83C369.59-142.28,368.83-142.32,367.65-142.38z M360.16-137.31c-0.05-3.17-2.09-5.28-5.02-5.19
		c-2.81,0.09-5.29,2.72-5.26,5.6c0.03,2.84,2.49,5.19,5.37,5.12C358.35-131.85,360.21-133.94,360.16-137.31z M339.97-142.24
		c0,3.51,0,6.84,0,10.34c0.81-0.07,1.48-0.12,2.18-0.18c0.06-1.43,0.12-2.69,0.18-3.99c1.26,0,2.39,0,3.69,0c0,1.44,0,2.7,0,4.13
		c0.86-0.04,1.53-0.07,2.26-0.1c0-3.45,0-6.72,0-10.14c-0.76,0-1.42,0-2.19,0c-0.09,1.27-0.17,2.45-0.26,3.74c-1.18,0-2.25,0-3.07,0
		C341.38-139.56,343.78-142.79,339.97-142.24z M397.51-134.29c-0.89-2.62-1.52-4.67-2.3-6.66c-0.22-0.56-0.87-0.94-1.32-1.41
		c-0.35,0.51-0.95,0.99-1.01,1.54c-0.28,2.63-0.45,5.27-0.58,7.91c-0.02,0.37,0.4,0.76,0.62,1.13c0.21-0.05,0.42-0.1,0.63-0.15
		c0.2-2.3,0.39-4.59,0.62-7.3c1.08,2.75,2,5.09,2.93,7.43c0.24,0,0.48,0,0.71,0c0.93-2.43,1.87-4.86,2.8-7.29
		c0.2,0.03,0.4,0.06,0.6,0.09c0,1.32-0.16,2.66,0.05,3.95c0.17,1.05-0.87,2.77,1.54,3.24c-0.2-3.19-0.34-6.13-0.59-9.07
		c-0.04-0.51-0.51-0.99-0.78-1.48c-0.5,0.4-1.24,0.7-1.45,1.22C399.13-139.06,398.44-136.93,397.51-134.29z M310.74-132.21
		c-0.14-0.59-0.27-1.2-0.44-1.8c-0.45-1.56-1.43-2.9-0.03-4.74c0.97-1.27-0.11-2.93-1.74-3.25c-1.73-0.34-3.56-0.22-5.34-0.3
		c0,3.7,0,6.97,0,10.4c0.82-0.06,1.49-0.1,2.17-0.15c0.06-1.36,0.11-2.54,0.17-3.71c0.26-0.13,0.52-0.27,0.77-0.4
		c0.55,0.84,1.34,1.61,1.59,2.52C308.33-132.02,309.08-131.51,310.74-132.21z M312.2-132.05c2.45,0,4.65,0,6.97,0
		c-0.03-0.59,0.02-1.42-0.09-1.44c-1.28-0.26-2.59-0.4-3.99-0.58c0-0.68,0-1.35,0-2.01c3.61-0.41,3.61-0.41,3.34-2.19
		c-1.06,0-2.15,0-3.41,0c0.05-0.75,0.08-1.33,0.12-2.02c0.95,0,1.77,0.12,2.53-0.05c0.47-0.1,0.84-0.65,1.26-1
		c-0.42-0.33-0.83-0.93-1.28-0.95c-1.79-0.11-3.6-0.05-5.45-0.05C312.2-138.74,312.2-135.47,312.2-132.05z M383.32-138.32
		c-0.14-0.2-0.29-0.41-0.43-0.61c0.52-0.45,0.98-0.99,1.57-1.3c0.38-0.2,0.99,0.09,1.4-0.08c0.48-0.19,0.86-0.64,1.28-0.98
		c-0.41-0.36-0.81-0.99-1.25-1.02c-1.69-0.12-3.4-0.05-5.07-0.05c0,3.74,0,7,0,10.35c2.18,0,4.22,0,6.48,0
		c-0.09-3.45-3.14-0.84-4.19-2.52c0.03-0.34,0.09-1.01,0.1-1.16c1.14-1.39,3.87,0.78,3.6-2.46
		C385.5-138.21,384.41-138.26,383.32-138.32z M323.26-134.3c0-0.48,0-1.15,0-1.64c1.1-1.02,3.67,0.94,3.63-2.25
		c-1.33,0-2.42,0-3.44,0c-0.95-2.11,0.3-2.11,1.61-2.06c1.3,0.05,2.51,0,1.75-1.92c-2.01,0-3.97,0-5.92,0c0,3.48,0,6.82,0,10.13
		c2.21,0,4.26,0,6.48,0C327.16-135.32,324.59-133.08,323.26-134.3z M378.88-141.11c-0.12-0.34-0.23-0.67-0.35-1.01
		c-1-0.11-2.16-0.59-2.98-0.25c-1.19,0.49-2.57,1.37-3.09,2.46c-0.72,1.53,0.51,2.59,1.89,3.39c0.86,0.5,1.53,1.33,2.28,2.01
		c-1.1,0.13-2.2,0.26-3.3,0.38c-0.23,0.02-0.46,0-0.64,0c-0.88,1.42-0.4,2.11,1.12,2.22c0.63,0.05,1.27,0.11,1.91,0.08
		c1.66-0.08,3.01-0.73,3.39-2.49c0.38-1.77-0.58-2.87-2.12-3.6c-0.81-0.38-1.55-0.91-2.31-1.37c0.03-0.23,0.07-0.47,0.1-0.7
		c0.77-0.11,1.56-0.15,2.3-0.35C377.7-140.5,378.28-140.85,378.88-141.11z M442.86-137.23c-0.01-3.12-1.89-5.26-4.63-5.28
		c-2.78-0.02-4.82,2.25-4.86,5.4c-0.05,3.18,1.97,5.44,4.79,5.37C441.03-131.82,442.87-133.96,442.86-137.23z M404.84-142.04
		c0,3.37,0,6.69,0,9.83c2.21,0,4.24,0,6.26,0c0-0.23,0.01-0.46,0.01-0.69c-1.57-0.15-3.14-0.3-4.78-0.46c0-1.15,0-2.14,0-3.21
		c1.53-0.13,2.93-0.24,4.33-0.36c0.01-0.26,0.01-0.53,0.02-0.79c-1.42-0.16-2.83-0.32-4.36-0.49c0-0.95,0-1.79,0-2.72
		c1.56-0.12,3.04-0.23,4.52-0.34c-0.01-0.25-0.01-0.51-0.02-0.76C408.89-142.04,406.96-142.04,404.84-142.04z M415.9-135.67
		c2.7,3.53,2.7,3.53,3.84,3.56c-0.92-1.72-2.49-3.38-2.53-5.08c-0.03-1.62,1.53-3.27,2.4-4.91c-0.24-0.17-0.48-0.35-0.72-0.52
		c-1,1.33-2.01,2.65-2.96,3.91c-1.4-0.92-1.07-3.56-3.8-3.66c1.01,1.95,2.54,3.58,2.5,5.17c-0.04,1.7-1.55,3.36-2.57,5.33
		C414.73-131.99,414.37-134.64,415.9-135.67z M432.9-132.86c-5.46-0.68-6.15-1.06-6.38-3.55c-0.44-4.66,2.8-4.93,6.54-4.77
		c-2.46-1.97-5.44-1.41-7.68,0.99c-1.18,1.25-1.22,5.07-0.08,6.36C427.26-131.62,430.52-131.1,432.9-132.86z M422.61-142.25
		c-0.4-0.04-0.79-0.08-1.19-0.12c-0.13,2.95-0.07,5.93-0.03,8.89c0.01,0.57,0.42,1.13,0.65,1.69c0.19-0.06,0.38-0.13,0.58-0.19
		C422.61-135.41,422.61-138.83,422.61-142.25z M446.8-85.34c-0.29-0.02-0.58-0.05-0.87-0.07c0,1.63-0.1,3.27,0.08,4.88
		c0.03,0.31,1.15,0.49,1.96,0.81C447.52-81.9,447.16-83.62,446.8-85.34z"/>
	<path class="st1" d="M289.38,76.48c0.08-0.13,0.22-0.26,0.23-0.4c1.09-9.23,3.98-18.1,9.66-26.28c2.84-4.09,6.22-8,9.82-11.72
		c2.8-2.89,6.17-5.49,9.59-7.97c2.96-2.15,6.22-4.09,9.57-5.88c5.96-3.17,12.4-5.67,19.38-7.21c2.88-0.63,5.84-1.03,8.78-1.5
		c0.47-0.08,0.98-0.01,1.47-0.01c0.01,0.05,0.04,0.1,0.03,0.11c-1.72,1.51-1.22,3.12-0.55,4.84c1.52,3.9,1.92,7.92,1.08,11.93
		c-1.46,6.96-4.19,13.62-9.5,19.43c-2.67,2.93-5.73,5.71-9.08,8.18c-5.45,4.01-11.82,7-19.13,8.63c-2.1,0.47-4.28,0.72-6.65,1.11
		c1.59-3.64,2.83-7.13,4.62-10.45c2.74-5.07,5.61-10.14,9.92-14.55c2.59-2.65,5.71-5,8.62-7.47c0.39-0.33,0.96-0.54,1.55-0.73
		c-6.26,7.72-13.24,15.14-14.97,24.66c0.48-0.16,0.77-0.23,1.04-0.34c4.8-1.94,9-4.48,12.87-7.42c4.22-3.2,7.39-6.92,10.27-10.87
		c5.22-7.18,7.3-14.85,6.48-23.03c-0.03-0.31-0.11-0.63-0.18-1.02c-0.34,0.08-0.62,0.11-0.86,0.19c-4.77,1.56-9.39,3.36-13.51,5.8
		c-3.43,2.03-6.73,4.2-10.07,6.33c-3.83,2.44-6.71,5.53-9.81,8.47c-4.09,3.87-7.04,8.25-9.91,12.69
		c-5.87,9.06-8.42,18.67-8.18,28.75c0.05,2.15,0.5,4.3,0.73,6.45c0.04,0.36,0.02,0.8-0.21,1.1c-2.54,3.32-5.12,6.61-7.91,10.19
		c-1.03-2.48-2.08-4.73-2.88-7.04c-0.6-1.7-0.89-3.47-1.31-5.21c-0.34-1.39-0.66-2.77-0.99-4.16
		C289.38,80.22,289.38,78.35,289.38,76.48z"/>
	<path class="st2" d="M214.23,100.42c0-1.84,0-3.69,0-5.8c6.61-0.26,11.97-2.96,15.78-8.38c3.05-4.34,2.07-9.31,2.14-14.44
		c-6.21,5.32-12.96,7.92-20.83,6.9c-5.88-0.76-10.71-3.5-14.45-8.09c-7.31-8.98-6.43-22.67,1.95-30.62
		c8.8-8.36,22.61-8.37,33.19,1.21c0-2.57,0-4.87,0-7.29c2.04,0,3.76,0,5.76,0c0,0.86,0,1.71,0,2.56c0,13.75-0.18,27.5,0.06,41.24
		c0.2,11.3-8.37,20.42-19.78,22.25c-0.49,0.08-0.95,0.31-1.43,0.47C215.82,100.42,215.02,100.42,214.23,100.42z M214.79,73.5
		c9.42,0.08,17.38-7.69,17.53-16.98c0.16-9.81-8.77-17.16-17.34-17.19c-9.82-0.03-17.46,7.35-17.52,16.88
		C197.4,66.03,204.81,73.42,214.79,73.5z"/>
	<path class="st3" d="M8.15,99.89c0.02,0.18,0.05,0.35,0.07,0.53c-2.08,0-4.15,0-6.23,0c0.09-0.2,0.17-0.41,0.26-0.61
		C4.22,99.83,6.19,99.86,8.15,99.89z"/>
	<path class="st4" d="M8.15,99.89c-1.97-0.03-3.93-0.05-5.9-0.08c-0.02-0.74-0.05-1.48-0.07-2.22c0.09-0.7,0.27-1.4,0.27-2.1
		c0.01-19.08,0.01-38.16,0-57.24c0-0.7-0.17-1.4-0.27-2.1c0-0.6,0-1.19,0-1.79c0.11-0.17,0.21-0.34,0.32-0.51c1.82,0,3.64,0,5.69,0
		c0,2.3,0,4.58,0,7.06c10.61-9.89,25.15-9.42,34.51,0.58c7.36,7.86,7.1,22.52-0.23,29.78c-11.47,11.37-26.95,7.97-34.33-0.1
		C8.15,81.08,8.15,90.48,8.15,99.89z M24.87,73c10.47,0.54,17.38-8.68,17.68-16.46c0.3-7.75-6.76-17.16-16.96-17.29
		c-9.42-0.12-17.17,7.07-17.38,16.21C7.98,65.37,15.01,72.77,24.87,73z"/>
	<path class="st2" d="M285.8,57.41c-13.28,0-26.58,0-39.91,0c1.19,6.96,6.09,14.29,13.52,15.76c7.33,1.45,15.87-2.18,18.61-8.63
		c1.08-2.54,2.39-3.2,4.77-2.86c0.7,0.1,1.42,0.02,2.17,0.02c-2.76,9.65-11.55,18.28-24.98,16.91
		c-11.22-1.15-20.3-11.07-19.49-23.79c0.77-12.09,12.12-21.41,24.64-20.57C277.14,35.06,286.22,47.45,285.8,57.41z M279.4,52.1
		c-1.38-7.26-8.81-12.69-16.81-12.49c-7.35,0.18-15.38,6.38-16.13,12.49C257.39,52.1,268.31,52.1,279.4,52.1z"/>
	<path class="st5" d="M188.7,57.46c-13.25,0-26.32,0-39.39,0c0.32,9.34,10.04,17.71,19.71,15.69c6.22-1.3,10.92-4.18,13.25-10.38
		c0.18-0.49,0.99-0.96,1.55-1.03c1.32-0.15,2.68-0.05,4.04-0.05c-1.28,10.21-12.98,18.17-24.7,16.97
		c-11.49-1.18-20.59-12.35-19.29-24.24c1.38-12.65,11.69-20.92,24.25-20.1C179.98,35.11,189.3,45.55,188.7,57.46z M182.82,52.09
		c-1.67-7.79-8.57-12.29-16.72-12.43c-7.09-0.13-15.9,6.11-16.4,12.43C160.68,52.09,171.65,52.09,182.82,52.09z"/>
	<path class="st6" d="M95.68,78.77c-11.33,0.32-23.11-9.28-23.18-22.28C72.44,44.22,82.71,34.1,95.15,33.6
		c12.34-0.49,23.74,10.9,23.75,22.61C118.91,67.84,107.62,79.41,95.68,78.77z M95.96,39.11C85.5,38.74,78.37,47.5,78.12,55.94
		c-0.25,8.31,6.89,17.34,16.99,17.44c9.99,0.1,17.79-7.36,17.82-17.07C112.95,46.85,105.41,39.21,95.96,39.11z"/>
	<path class="st7" d="M145.32,73.19c0,1.9,0,3.64,0,5.38c-11.38,0.62-23.36-7.28-23.83-20.89c-0.52-14.94-0.12-29.91-0.12-45.05
		c1.83,0,3.62,0,5.63,0c0,6.55,0,13.19,0,19.99c6.19,0,12.15,0,18.27,0c0,1.95,0,3.74,0,5.69c-6.06,0-12.02,0-18.06,0
		c0,7.05-0.56,14,0.15,20.82c0.85,8.16,7.14,12.45,15.31,13.79C143.52,73.05,144.38,73.1,145.32,73.19z"/>
	<path class="st8" d="M56.19,78.69c-1.86,0-3.51,0-5.33,0c0-14.43,0-28.83,0-43.31c1.71,0,3.36,0,5.2,0c0,2.19,0,4.32,0,6.98
		c5.36-4.69,11.33-6.59,18.05-7.05c0,1.76,0,3.47,0,5.38c-1.56,0.25-3.29,0.39-4.95,0.81c-7.13,1.83-13.64,7.76-13.07,16.2
		C56.56,64.63,56.19,71.63,56.19,78.69z"/>
	<path class="st9" d="M170.89,19.97c0,0.98,0,1.93,0,2.88c0,0.96,0,1.91,0,3.08c-0.75,0.04-1.39,0.08-2.12,0.12
		c0-3.48,0-6.76,0-10.25c4.59-0.84,4.52,3.52,6.58,5.89c0-2.01,0-3.83,0-5.62c1.67-0.74,2.46-0.54,2.42,1.3
		c-0.06,2.8-0.02,5.61-0.02,8.62C172.96,26.63,174.14,21.03,170.89,19.97z"/>
	<path class="st10" d="M140.98,16.78c-0.58,0.34-1.13,0.72-1.74,0.99c-0.25,0.11-0.62-0.08-0.94-0.09c-2.35-0.02-4.17,1.44-4.12,3.3
		c0.06,2.03,1.86,3.25,4.8,3c-0.2-0.65-0.31-1.27-0.58-1.8c-0.28-0.54-0.72-0.99-1.09-1.47c0.56-0.19,1.1-0.46,1.67-0.54
		c0.62-0.09,1.26-0.02,2.03-0.02c0.09,0.65,0.28,1.19,0.2,1.7c-0.25,1.65,1.13,4.04-2.16,4.28c-4.22,0.31-6.63-0.82-7.27-3.75
		c-0.63-2.89,0.58-5.44,3.19-6.12c1.78-0.46,3.66-0.49,5.5-0.72C140.64,15.94,140.81,16.36,140.98,16.78z"/>
	<path class="st9" d="M207.49,15.63c1.18,0.06,1.94,0.1,2.86,0.14c0,2.38,0.12,4.61-0.04,6.83c-0.14,2-2.34,3.63-4.58,3.69
		c-2.31,0.05-3.76-1.06-4.06-3.47c-0.25-1.98-0.23-3.99-0.17-5.99c0.01-0.4,0.83-1.16,1.07-1.08c0.51,0.16,1.2,0.73,1.24,1.19
		c0.17,1.75-0.03,3.54,0.23,5.27c0.11,0.73,1.02,1.34,1.57,2.01c0.62-0.68,1.69-1.31,1.78-2.06
		C207.66,20.11,207.49,18.02,207.49,15.63z"/>
	<path class="st11" d="M200,20.69c0.05,3.37-1.81,5.47-4.91,5.54c-2.88,0.07-5.34-2.28-5.37-5.12c-0.03-2.88,2.45-5.51,5.26-5.6
		C197.91,15.41,199.95,17.53,200,20.69z M197.53,20.71c-0.23-1.46-0.45-3.22-2.41-3.21c-2.07,0.02-2.45,1.78-2.44,3.47
		c0.02,1.59,0.37,3.25,2.37,3.26C197.23,24.24,197.36,22.44,197.53,20.71z"/>
	<path class="st12" d="M179.81,15.77c3.8-0.56,1.41,2.67,2.78,3.8c0.82,0,1.9,0,3.07,0c0.09-1.3,0.17-2.48,0.26-3.74
		c0.77,0,1.43,0,2.19,0c0,3.43,0,6.69,0,10.14c-0.73,0.03-1.4,0.06-2.26,0.1c0-1.43,0-2.69,0-4.13c-1.3,0-2.42,0-3.69,0
		c-0.06,1.3-0.11,2.56-0.18,3.99c-0.7,0.06-1.37,0.11-2.18,0.18C179.81,22.61,179.81,19.27,179.81,15.77z"/>
	<path class="st13" d="M237.35,23.71c0.94-2.64,1.63-4.77,2.48-6.83c0.21-0.52,0.95-0.82,1.45-1.22c0.27,0.49,0.74,0.97,0.78,1.48
		c0.25,2.93,0.4,5.88,0.59,9.07c-2.41-0.47-1.38-2.19-1.54-3.24c-0.21-1.28-0.05-2.63-0.05-3.95c-0.2-0.03-0.4-0.06-0.6-0.09
		c-0.93,2.43-1.87,4.86-2.8,7.29c-0.24,0-0.48,0-0.71,0c-0.92-2.34-1.84-4.69-2.93-7.43c-0.23,2.71-0.43,5-0.62,7.3
		c-0.21,0.05-0.42,0.1-0.63,0.15c-0.22-0.38-0.64-0.77-0.62-1.13c0.13-2.64,0.3-5.28,0.58-7.91c0.06-0.54,0.66-1.03,1.01-1.54
		c0.45,0.47,1.1,0.85,1.32,1.41C235.83,19.04,236.46,21.09,237.35,23.71z"/>
	<path class="st14" d="M150.58,25.79c-1.66,0.7-2.42,0.18-2.85-1.43c-0.25-0.92-1.04-1.69-1.59-2.52c-0.26,0.13-0.52,0.27-0.77,0.4
		c-0.05,1.17-0.11,2.34-0.17,3.71c-0.68,0.05-1.35,0.09-2.17,0.15c0-3.43,0-6.69,0-10.4c1.79,0.08,3.61-0.04,5.34,0.3
		c1.64,0.32,2.71,1.98,1.74,3.25c-1.4,1.84-0.43,3.18,0.03,4.74C150.31,24.59,150.44,25.2,150.58,25.79z M145.36,20.57
		c0.98-0.46,1.75-0.71,2.36-1.17c0.2-0.15,0.16-1.12-0.05-1.25c-0.64-0.4-1.43-0.56-2.31-0.87
		C145.36,18.53,145.36,19.3,145.36,20.57z"/>
	<path class="st15" d="M152.04,25.96c0-3.43,0-6.69,0-10.27c1.85,0,3.66-0.06,5.45,0.05c0.44,0.03,0.85,0.62,1.28,0.95
		c-0.42,0.35-0.79,0.89-1.26,1c-0.75,0.17-1.57,0.05-2.53,0.05c-0.04,0.69-0.08,1.27-0.12,2.02c1.26,0,2.35,0,3.41,0
		c0.27,1.77,0.27,1.77-3.34,2.19c0,0.66,0,1.33,0,2.01c1.4,0.18,2.7,0.32,3.99,0.58c0.11,0.02,0.06,0.85,0.09,1.44
		C156.69,25.96,154.49,25.96,152.04,25.96z"/>
	<path class="st9" d="M223.16,19.69c1.09,0.05,2.18,0.11,3.48,0.17c0.27,3.24-2.46,1.08-3.6,2.46c-0.01,0.15-0.07,0.82-0.1,1.16
		c1.06,1.68,4.11-0.93,4.19,2.52c-2.26,0-4.3,0-6.48,0c0-3.35,0-6.61,0-10.35c1.67,0,3.38-0.07,5.07,0.05
		c0.44,0.03,0.83,0.66,1.25,1.02c-0.42,0.34-0.8,0.78-1.28,0.98c-0.41,0.17-1.02-0.12-1.4,0.08c-0.59,0.31-1.05,0.85-1.57,1.3
		C222.87,19.28,223.02,19.48,223.16,19.69z"/>
	<path class="st16" d="M163.1,23.7c1.33,1.22,3.9-1.02,4.11,2.25c-2.22,0-4.26,0-6.48,0c0-3.31,0-6.65,0-10.13c1.95,0,3.91,0,5.92,0
		c0.77,1.92-0.44,1.97-1.75,1.92c-1.31-0.05-2.55-0.05-1.61,2.06c1.02,0,2.11,0,3.44,0c0.04,3.19-2.53,1.23-3.63,2.25
		C163.1,22.55,163.1,23.22,163.1,23.7z"/>
	<path class="st10" d="M218.72,16.89c-0.6,0.27-1.18,0.62-1.8,0.78c-0.75,0.2-1.53,0.24-2.3,0.35c-0.03,0.23-0.07,0.47-0.1,0.7
		c0.77,0.46,1.51,0.98,2.31,1.37c1.54,0.73,2.5,1.83,2.12,3.6c-0.38,1.76-1.73,2.41-3.39,2.49c-0.63,0.03-1.27-0.03-1.91-0.08
		c-1.52-0.12-2-0.8-1.12-2.22c0.19,0,0.42,0.02,0.64,0c1.1-0.12,2.2-0.25,3.3-0.38c-0.75-0.68-1.42-1.51-2.28-2.01
		c-1.37-0.8-2.61-1.86-1.89-3.39c0.52-1.09,1.9-1.97,3.09-2.46c0.82-0.34,1.97,0.14,2.98,0.25
		C218.49,16.22,218.6,16.55,218.72,16.89z"/>
	<path class="st17" d="M282.7,20.77c0.01,3.27-1.83,5.42-4.7,5.49c-2.82,0.07-4.84-2.19-4.79-5.37c0.04-3.15,2.09-5.41,4.86-5.4
		C280.81,15.51,282.69,17.65,282.7,20.77z M274.77,20.98c0.04,2.38,1.34,4.08,3.15,4.11c1.87,0.02,3.31-1.84,3.28-4.25
		c-0.03-2.5-1.42-4.15-3.42-4.05C275.96,16.88,274.73,18.59,274.77,20.98z"/>
	<path class="st18" d="M244.68,15.97c2.12,0,4.05,0,5.98,0c0.01,0.25,0.01,0.51,0.02,0.76c-1.48,0.11-2.96,0.22-4.52,0.34
		c0,0.93,0,1.77,0,2.72c1.53,0.17,2.94,0.33,4.36,0.49c-0.01,0.26-0.01,0.53-0.02,0.79c-1.4,0.12-2.8,0.23-4.33,0.36
		c0,1.07,0,2.06,0,3.21c1.64,0.16,3.21,0.31,4.78,0.46c0,0.23-0.01,0.46-0.01,0.69c-2.02,0-4.04,0-6.26,0
		C244.68,22.66,244.68,19.33,244.68,15.97z"/>
	<path class="st17" d="M255.74,22.34c-1.53,1.03-1.17,3.68-3.85,3.79c1.02-1.96,2.53-3.63,2.57-5.33c0.04-1.59-1.49-3.22-2.5-5.17
		c2.73,0.1,2.4,2.74,3.8,3.66c0.96-1.26,1.96-2.58,2.96-3.91c0.24,0.17,0.48,0.35,0.72,0.52c-0.86,1.64-2.43,3.29-2.4,4.91
		c0.03,1.69,1.6,3.36,2.53,5.08C258.44,25.86,258.44,25.86,255.74,22.34z"/>
	<path class="st13" d="M272.74,25.14c-2.37,1.76-5.63,1.25-7.6-0.98c-1.15-1.29-1.1-5.1,0.08-6.36c2.25-2.4,5.22-2.96,7.68-0.99
		c-3.74-0.16-6.98,0.11-6.54,4.77C266.59,24.08,267.28,24.46,272.74,25.14z"/>
	<path class="st3" d="M2.19,36.15c0.09,0.7,0.27,1.4,0.27,2.1c0.01,19.08,0.01,38.16,0,57.24c0,0.7-0.18,1.4-0.27,2.1
		C2.12,96.95,2,96.32,2,95.68C1.99,76.47,1.99,57.26,2,38.04C2,37.41,2.12,36.78,2.19,36.15z"/>
	<path class="st19" d="M262.45,15.75c0,3.42,0,6.85,0,10.27c-0.19,0.06-0.38,0.13-0.58,0.19c-0.23-0.56-0.64-1.12-0.65-1.69
		c-0.04-2.96-0.1-5.94,0.03-8.89C261.65,15.67,262.05,15.71,262.45,15.75z"/>
	<path class="st20" d="M290.79,74.8c0.05-0.7,0.11-1.4,0.18-2.25c0.98,0,1.9,0,3,0c0.24,0.55,0.53,1.23,1.05,2.41
		c-0.96,0.11-1.76,0.2-2.97,0.34c-0.05,0.3-0.21,1.27-0.43,2.62c-0.39-0.54-0.61-0.85-0.83-1.15
		C290.79,76.12,290.79,75.46,290.79,74.8z"/>
	<path class="st21" d="M289.4,73.33c0.04,0.61-0.02,1.23-0.18,1.83c0.13,0.63,0.16,1.28,0.07,1.91c0.52-0.1,1.01-0.2,1.49-0.3
		c0-0.66,0-1.32,0-1.98L289.4,73.33z"/>
	<path class="st3" d="M2.51,33.85c-0.11,0.17-0.21,0.34-0.32,0.51C2.29,34.19,2.4,34.02,2.51,33.85z"/>
	<path class="st22" d="M214.79,73.5c-9.98-0.08-17.39-7.47-17.33-17.28c0.06-9.53,7.7-16.91,17.52-16.88
		c8.57,0.03,17.5,7.37,17.34,17.19C232.16,65.81,224.21,73.58,214.79,73.5z"/>
	<path class="st22" d="M24.87,73c-9.86-0.23-16.89-7.63-16.66-17.54c0.21-9.14,7.96-16.33,17.38-16.21
		c10.2,0.13,17.25,9.54,16.96,17.29C42.25,64.32,35.34,73.54,24.87,73z"/>
	<path class="st23" d="M279.4,52.1c-11.08,0-22.01,0-32.94,0c0.75-6.11,8.78-12.31,16.13-12.49C270.59,39.4,278.02,44.84,279.4,52.1
		z"/>
	<path class="st23" d="M182.82,52.09c-11.16,0-22.14,0-33.12,0c0.49-6.33,9.31-12.57,16.4-12.43
		C174.24,39.8,181.14,44.3,182.82,52.09z"/>
	<path class="st24" d="M95.96,39.11c9.45,0.11,16.99,7.75,16.96,17.2c-0.03,9.7-7.83,17.16-17.82,17.07
		c-10.1-0.1-17.24-9.13-16.99-17.44C78.37,47.5,85.5,38.74,95.96,39.11z"/>
	<path class="st25" d="M197.53,20.71c-0.17,1.73-0.29,3.53-2.48,3.52c-2-0.01-2.36-1.67-2.37-3.26c-0.02-1.69,0.37-3.45,2.44-3.47
		C197.08,17.49,197.3,19.24,197.53,20.71z"/>
	<path class="st26" d="M145.36,20.57c0-1.27,0-2.05,0-3.3c0.88,0.31,1.66,0.48,2.31,0.87c0.21,0.13,0.25,1.1,0.05,1.25
		C147.1,19.86,146.33,20.11,145.36,20.57z"/>
	<path class="st27" d="M274.77,20.98c-0.04-2.38,1.19-4.1,3.01-4.19c2-0.1,3.39,1.55,3.42,4.05c0.03,2.41-1.41,4.27-3.28,4.25
		C276.12,25.06,274.81,23.35,274.77,20.98z"/>
</g>
<g>
	<g>
		<path class="st1" d="M292.83,77.38c3.22,0,3.22-5,0-5C289.61,72.38,289.61,77.38,292.83,77.38L292.83,77.38z"/>
	</g>
</g>
<g>
	<g>
		<path class="st1" d="M292.24,75.11c-0.01,0-0.03,0.01-0.04,0.01c0.22-0.03,0.44-0.06,0.66-0.09c-0.01,0-0.03,0-0.04,0
			c0.22,0.03,0.44,0.06,0.66,0.09c-0.01,0-0.02-0.01-0.04-0.01c0.2,0.08,0.4,0.17,0.6,0.25c-0.03-0.01-0.05-0.02-0.07-0.04
			c0.17,0.13,0.34,0.26,0.51,0.39c-0.02-0.02-0.04-0.04-0.06-0.07c0.13,0.17,0.26,0.34,0.39,0.51c-0.13-0.18-0.2-0.4-0.29-0.59
			c-0.1-0.21-0.2-0.41-0.29-0.62c0.08,0.2,0.17,0.4,0.25,0.6c-0.03-0.06-0.05-0.13-0.06-0.2c0.03,0.22,0.06,0.44,0.09,0.66
			c0-0.03-0.01-0.07,0-0.1c-0.03,0.22-0.06,0.44-0.09,0.66c0.01-0.07,0.03-0.13,0.06-0.2c-0.08,0.2-0.17,0.4-0.25,0.6
			c0.19-0.42,0.4-0.83,0.53-1.27c0.13-0.45,0.19-0.93,0.21-1.4c-0.03-0.22-0.06-0.44-0.09-0.66c-0.08-0.33-0.23-0.61-0.45-0.85
			c-0.11-0.19-0.26-0.34-0.45-0.45c-0.24-0.22-0.52-0.37-0.85-0.45c-0.22-0.06-0.49-0.08-0.71-0.1c-0.03,0-0.07-0.01-0.1-0.01
			c-0.48,0-0.72,0.08-1.11,0.25c-0.21,0.06-0.4,0.17-0.55,0.32c-0.19,0.11-0.34,0.26-0.45,0.45c-0.15,0.16-0.26,0.34-0.32,0.55
			c-0.06,0.1-0.1,0.21-0.13,0.32c-0.04,0.13-0.04,0.26-0.06,0.4c-0.01,0.1-0.05,0.29-0.05,0.42c0,0.03,0.01,0.06,0.01,0.09
			c0.02,0.23,0.05,0.49,0.1,0.71c0.01,0.06,0.03,0.12,0.05,0.19c0.05,0.14,0.1,0.28,0.12,0.43c-0.03-0.22-0.06-0.44-0.09-0.66
			c0,0.05,0,0.1,0,0.15c0.03-0.22,0.06-0.44,0.09-0.66c-0.02,0.11-0.05,0.22-0.1,0.33c0.08-0.2,0.17-0.4,0.25-0.6
			c-0.1,0.23-0.19,0.45-0.34,0.65c0.13-0.17,0.26-0.34,0.39-0.51c-0.05,0.07-0.11,0.13-0.17,0.19c-0.24,0.23-0.42,0.49-0.52,0.8
			c-0.16,0.3-0.23,0.62-0.22,0.96c-0.01,0.34,0.06,0.67,0.22,0.96c0.1,0.31,0.27,0.58,0.52,0.8c0.48,0.44,1.1,0.76,1.77,0.73
			c0.22-0.03,0.44-0.06,0.66-0.09c0.42-0.12,0.79-0.33,1.1-0.64c0.59-0.53,0.94-1.32,1.2-2.05c0.21-0.58,0.17-1.21,0.04-1.8
			c-0.04-0.19-0.13-0.37-0.17-0.56c0.03,0.22,0.06,0.44,0.09,0.66c-0.01-0.06-0.01-0.12,0-0.18c-0.03,0.22-0.06,0.44-0.09,0.66
			c0-0.03,0.01-0.06,0.02-0.09c-0.58,0.58-1.16,1.16-1.75,1.75c0.03-0.01,0.06-0.02,0.1-0.03c-0.22,0.03-0.44,0.06-0.66,0.09
			c0.05-0.01,0.1,0,0.15,0c-0.22-0.03-0.44-0.06-0.66-0.09c0.02,0,0.03,0.01,0.05,0.01c-0.61-0.8-1.22-1.61-1.84-2.41
			c0,0.1-0.01,0.19-0.03,0.29c0.03-0.22,0.06-0.44,0.09-0.66c-0.04,0.27-0.11,0.52-0.21,0.77c0.08-0.2,0.17-0.4,0.25-0.6
			c-0.05,0.12-0.11,0.23-0.17,0.35c-0.25,0.53-0.4,0.91-0.4,1.52c0,0.7,0.29,1.27,0.58,1.88c0.12,0.25,0.22,0.52,0.36,0.76
			c0.25,0.43,0.62,0.82,1.04,1.07c0.58,0.34,1.42,0.51,2.08,0.26c0.33-0.08,0.61-0.23,0.85-0.45c0.27-0.18,0.49-0.41,0.64-0.7
			c0.18-0.29,0.28-0.6,0.3-0.93c0.07-0.33,0.06-0.66-0.04-1c-0.2-0.6-0.57-1.19-1.15-1.49c-0.2-0.08-0.4-0.17-0.6-0.25
			C293.12,74.99,292.68,74.99,292.24,75.11L292.24,75.11z"/>
	</g>
</g>
</svg>
